<svg width="1024" height="153" viewBox="0 0 1024 153" fill="none" xmlns="http://www.w3.org/2000/svg">
<g filter="url(#filter0_d_2518_264)">
<path d="M31.2597 1.86084H74.9247C111.698 1.86084 119.279 22.3816 114.91 42.6775C112.387 55.0424 105.483 70.4298 87.0963 74.1643C103.649 78.3608 107.784 94.2229 104.794 107.987C100.892 128.745 85.2626 151.126 47.5664 151.126H0L31.2597 1.86084ZM51.0123 123.849C66.6422 123.849 73.0787 116.854 75.6016 104.252C78.1245 92.1246 76.2908 87.6907 62.2732 87.6907H42.5205L34.9394 123.836H51.0123V123.849ZM62.9747 62.274C76.9923 62.274 83.195 55.9791 85.4964 44.3137C87.7978 32.8855 86.4194 29.151 73.5464 29.151H54.9259L48.034 62.274H62.9747Z" fill="#FF6700"/>
<path d="M436.97 1.86084H479.257C526.602 1.86084 524.3 32.1861 520.854 49.4345C517.408 65.0592 507.76 90.2511 476.045 91.65L504.314 151.126H469.14L447.997 90.0263L434.902 151.126H405.723L436.97 1.86084ZM465.694 70.9044C481.324 70.9044 488.671 60.8751 490.973 48.7475C493.496 36.6199 490.739 28.9262 477.411 28.9262H460.649L451.911 70.9044H465.694Z" fill="#FF6700"/>
<path d="M614.314 136.426C601.823 150.002 582.895 152.988 572.089 152.988C529.113 152.988 524.055 112.645 531.87 75.0887C540.153 35.6833 556.693 0 599.903 0C632.997 0 650.226 18.1851 644.947 51.0708H615.767C617.6 33.1105 610.253 27.515 597.835 27.515C578.07 27.515 566.81 48.7352 560.841 77.8864C556.016 101.205 553.715 125.46 575.548 125.46C585.885 125.46 599.681 117.529 606.106 92.8117H577.837L583.116 65.9961H644.528C644.54 65.9961 638.288 110.397 614.314 136.426Z" fill="#FF6700"/>
<path d="M992.434 136.426C979.942 150.002 961.014 152.988 950.208 152.988C907.232 152.988 902.174 112.645 909.989 75.0887C918.259 35.6833 934.812 0 978.01 0C1011.1 0 1028.33 18.1851 1023.05 51.0708H993.874C995.707 33.1105 988.36 27.515 975.942 27.515C956.177 27.515 944.916 48.7352 938.948 77.8864C934.123 101.205 931.822 125.46 953.654 125.46C963.992 125.46 977.788 117.529 984.213 92.8117H955.943L961.223 65.9961H1022.63C1022.66 65.9961 1016.41 110.397 992.434 136.426Z" fill="#FF6700"/>
<path d="M706.972 1.86084H745.124L753.172 151.126H723.525L723.07 124.536H678.481L666.531 151.126H634.816L706.972 1.86084ZM722.147 100.518L720.534 30.5499L689.509 100.518H722.147Z" fill="#FF6700"/>
<path d="M797.737 1.86084H831.754L856.577 100.743L877.265 1.86084H906.444L875.185 151.126H842.091L816.357 52.9441L795.903 151.126H766.256L797.737 1.86084Z" fill="#FF6700"/>
<path d="M405.366 31.7115L412.209 1.86084H151.511L144.668 31.7115H405.366Z" fill="#FF6700"/>
<path d="M130.982 91.4253H391.681L398.523 61.5747H137.825L130.982 91.4253Z" fill="#FF6700"/>
<path d="M124.14 121.276L117.297 151.127H377.995L384.838 121.276H124.14Z" fill="#FF6700"/>
</g>
<defs>
<filter id="filter0_d_2518_264" x="-3" y="-23" width="1069.99" height="198.987" filterUnits="userSpaceOnUse" color-interpolation-filters="sRGB">
<feFlood flood-opacity="0" result="BackgroundImageFix"/>
<feColorMatrix in="SourceAlpha" type="matrix" values="0 0 0 0 0 0 0 0 0 0 0 0 0 0 0 0 0 0 127 0" result="hardAlpha"/>
<feOffset dx="20"/>
<feGaussianBlur stdDeviation="11.5"/>
<feComposite in2="hardAlpha" operator="out"/>
<feColorMatrix type="matrix" values="0 0 0 0 0 0 0 0 0 0 0 0 0 0 0 0 0 0 0.55 0"/>
<feBlend mode="normal" in2="BackgroundImageFix" result="effect1_dropShadow_2518_264"/>
<feBlend mode="normal" in="SourceGraphic" in2="effect1_dropShadow_2518_264" result="shape"/>
</filter>
</defs>
</svg>
