<svg width="1468" height="238" viewBox="0 0 1468 238" fill="none" xmlns="http://www.w3.org/2000/svg">
<path d="M678.897 80.6577C678.897 53.5291 673.848 3.25067 600.608 3.25067H529.895V234.744H580.765V149.379L625.865 234.744H688.641L629.474 146.129C673.488 138.532 678.903 103.085 678.903 80.6577H678.897ZM600.247 109.592H580.765V50.9952H600.247C620.45 50.9952 627.307 62.9313 627.307 80.6577C627.307 97.2949 620.45 109.592 600.247 109.592Z" fill="#FF5D00"/>
<path d="M780.277 146.134H822.129C818.881 179.77 803.728 189.9 789.301 189.9C756.832 189.9 754.304 153.008 754.304 119.006C754.304 85.0032 756.832 48.1113 789.301 48.1113C807.702 48.1113 821.769 55.7075 821.769 81.3857H873C873 34.3636 847.387 0 788.94 0C715.34 0 701.993 61.131 701.993 119.361C701.993 177.591 716.786 238 785.692 238C810.083 238 830.995 232.136 846.205 217.649C870.376 194.629 872.971 152.105 873.394 125.202C873.585 113.001 873 100.912 873 100.912H780.277V146.134Z" fill="#FF5D00"/>
<path d="M1467.57 100.918H1374.84V146.134H1416.7C1413.45 179.77 1398.3 189.9 1383.87 189.9C1351.4 189.9 1348.87 153.008 1348.87 119.006C1348.87 85.0032 1351.4 48.1113 1383.87 48.1113C1402.27 48.1113 1416.34 55.7075 1416.34 81.3857H1467.57C1467.57 34.3636 1441.96 0 1383.51 0C1309.91 0 1296.56 61.131 1296.56 119.361C1296.56 177.591 1311.35 238 1380.26 238C1404.65 238 1425.56 232.136 1440.77 217.649C1464.94 194.629 1467.54 152.105 1467.96 125.202C1468.15 113.001 1467.57 100.912 1467.57 100.912V100.918Z" fill="#FF5D00"/>
<path d="M951.284 3.25634L888.148 234.749H941.54L950.918 194.962H1013.69L1023.07 234.749H1076.46L1013.34 3.25634H951.284ZM961.022 151.919L982.311 57.5135L1003.59 151.919H961.022Z" fill="#FF5D00"/>
<path d="M1215.38 142.511L1154.77 3.25634H1093.8V234.749H1145.39V95.489L1207.44 234.749H1266.25V3.25634H1215.38V142.511Z" fill="#FF5D00"/>
<path d="M117.614 112.854C138.898 105.619 147.556 84.2809 147.556 63.6593C147.556 31.4685 128.794 3.25634 72.8743 3.25634H0V234.749H74.321C136.376 234.749 152.61 198.941 152.61 164.577C152.61 145.045 141.786 120.812 117.614 112.854ZM50.8702 50.6396H73.6004C92.002 50.6396 96.691 57.1523 96.691 72.7059C96.691 88.2596 91.2814 95.1334 72.5197 95.1334H50.8702V50.6396ZM75.0415 187.366H50.8702V138.171H75.4018C95.2443 138.171 100.294 145.045 100.294 162.766C100.294 179.403 94.1579 187.36 75.0415 187.36V187.366Z" fill="#FF5D00"/>
<path d="M196.669 51.362H494.133L500.984 3.25634H203.52L196.669 51.362Z" fill="#FF5D00"/>
<path d="M183.61 143.053H481.074L487.925 94.9472H190.461L183.61 143.053Z" fill="#FF5D00"/>
<path d="M170.55 234.749H468.014L474.865 186.638H177.401L170.55 234.749Z" fill="#FF5D00"/>
</svg>
