<svg width="30" height="23" viewBox="0 0 30 23" fill="none" xmlns="http://www.w3.org/2000/svg">
<path d="M25.4129 2.21832C23.4418 1.32535 21.361 0.69184 19.2236 0.333984C18.9311 0.851391 18.6665 1.38373 18.4308 1.92878C16.1541 1.58928 13.8388 1.58928 11.562 1.92878C11.3262 1.38379 11.0616 0.851453 10.7692 0.333984C8.63042 0.694862 6.54825 1.32987 4.57524 2.22299C0.658305 7.95772 -0.403514 13.55 0.127396 19.0629C2.42125 20.7401 4.98873 22.0155 7.71823 22.8339C8.33283 22.0159 8.87667 21.1482 9.34399 20.2398C8.45639 19.9117 7.59969 19.507 6.78383 19.0302C6.99855 18.8761 7.20855 18.7174 7.41148 18.5632C9.78547 19.668 12.3766 20.2408 15 20.2408C17.6234 20.2408 20.2144 19.668 22.5884 18.5632C22.7937 18.729 23.0037 18.8878 23.2161 19.0302C22.3986 19.5078 21.5404 19.9133 20.6512 20.2421C21.1179 21.1501 21.6618 22.0171 22.277 22.8339C25.0088 22.0188 27.5782 20.7439 29.8725 19.0653V19.0653C30.4954 12.6721 28.8083 7.13114 25.4129 2.21832ZM10.0165 15.6725C8.53701 15.6725 7.31474 14.3439 7.31474 12.7094C7.31474 11.0749 8.49454 9.73465 10.0118 9.73465C11.529 9.73465 12.7418 11.0749 12.7159 12.7094C12.6899 14.3439 11.5243 15.6725 10.0165 15.6725ZM19.9834 15.6725C18.5016 15.6725 17.284 14.3439 17.284 12.7094C17.284 11.0749 18.4638 9.73465 19.9834 9.73465C21.503 9.73465 22.7064 11.0749 22.6804 12.7094C22.6545 14.3439 21.4912 15.6725 19.9834 15.6725Z" fill="white"/>
</svg>
