<svg width="34" height="25" viewBox="0 0 34 25" fill="none" xmlns="http://www.w3.org/2000/svg">
<path d="M28.4541 2.23943C26.286 1.25715 23.9971 0.560297 21.646 0.166656C21.3243 0.735803 21.0332 1.32138 20.7739 1.92093C18.2695 1.54748 15.7226 1.54748 13.2182 1.92093C12.9588 1.32144 12.6677 0.735872 12.3461 0.166656C9.99346 0.563622 7.70308 1.26213 5.53276 2.24456C1.22414 8.55277 0.0561344 14.7043 0.640135 20.7685C3.16338 22.6133 5.9876 24.0164 8.99005 24.9166C9.66611 24.0168 10.2643 23.0622 10.7784 22.063C9.80203 21.7022 8.85966 21.257 7.96221 20.7325C8.1984 20.563 8.42941 20.3884 8.65263 20.2188C11.264 21.4341 14.1142 22.0642 16.9999 22.0642C19.8857 22.0642 22.7359 21.4341 25.3473 20.2188C25.5731 20.4012 25.8041 20.5759 26.0377 20.7325C25.1385 21.2578 24.1944 21.7039 23.2163 22.0656C23.7297 23.0643 24.328 24.0181 25.0047 24.9166C28.0097 24.02 30.8361 22.6176 33.3598 20.7711C34.045 13.7385 32.1892 7.64353 28.4541 2.23943ZM11.5181 17.0391C9.89071 17.0391 8.54621 15.5776 8.54621 13.7796C8.54621 11.9817 9.84399 10.5074 11.5129 10.5074C13.1819 10.5074 14.516 11.9817 14.4874 13.7796C14.4589 15.5776 13.1767 17.0391 11.5181 17.0391ZM22.4818 17.0391C20.8518 17.0391 19.5124 15.5776 19.5124 13.7796C19.5124 11.9817 20.8102 10.5074 22.4818 10.5074C24.1533 10.5074 25.477 11.9817 25.4485 13.7796C25.4199 15.5776 24.1403 17.0391 22.4818 17.0391Z" fill="#CB3D00"/>
</svg>
