<svg width="186" height="30" viewBox="0 0 186 30" fill="none" xmlns="http://www.w3.org/2000/svg">
<path fill-rule="evenodd" clip-rule="evenodd" d="M98.4567 12.7208V18.4203H103.738C103.328 22.6601 101.416 23.937 99.5953 23.937C95.4983 23.937 95.1794 19.2867 95.1794 15.0007C95.1794 10.7147 95.4983 6.06445 99.5953 6.06445C101.917 6.06445 103.692 7.02196 103.692 10.2587H110.157C110.157 4.33155 106.925 0 99.5498 0C90.2628 0 88.5787 7.70559 88.5787 15.0455C88.5787 22.3855 90.4453 30 99.14 30C102.218 30 104.856 29.2609 106.776 27.4348C109.826 24.5331 110.153 19.1729 110.206 15.7818C110.23 14.2438 110.157 12.72 110.157 12.72H98.4567V12.7208ZM85.6645 10.1669C85.6645 6.74737 85.0273 0.409749 75.7858 0.409749H66.8631V29.5895H73.282V18.8293L78.9728 29.5895H86.894L79.4281 18.4196C84.9819 17.4621 85.6652 12.9939 85.6652 10.1669H85.6645ZM75.7403 13.8141H73.282V6.42796H75.7403C78.2895 6.42796 79.1547 7.93251 79.1547 10.1669C79.1547 12.2641 78.2895 13.8141 75.7403 13.8141ZM173.48 12.7208H185.18V12.72C185.18 12.72 185.254 14.2438 185.23 15.7818C185.177 19.1729 184.849 24.5331 181.799 27.4348C179.88 29.2609 177.241 30 174.164 30C165.469 30 163.602 22.3855 163.602 15.0455C163.602 7.70559 165.286 0 174.573 0C181.948 0 185.18 4.33155 185.18 10.2587H178.716C178.716 7.02196 176.941 6.06445 174.619 6.06445C170.522 6.06445 170.203 10.7147 170.203 15.0007C170.203 19.2867 170.522 23.937 174.619 23.937C176.439 23.937 178.351 22.6601 178.761 18.4203H173.48V12.7208ZM120.035 0.410461L112.068 29.5902H118.805L119.988 24.5751H127.91L129.093 29.5902H135.83L127.865 0.410461H120.035ZM121.263 19.1494L123.95 7.2496L126.635 19.1494H121.263ZM145.711 0.410461L153.359 17.9636V0.410461H159.777V29.5902H152.357L144.527 12.0364V29.5902H138.017V0.410461H145.711ZM14.8408 14.2253C17.5264 13.3133 18.6188 10.6236 18.6188 8.02428C18.6188 3.96661 16.2514 0.410461 9.1954 0.410461H0V29.5902H9.37795C17.2082 29.5902 19.2566 25.0766 19.2566 20.745C19.2566 18.283 17.8908 15.2283 14.8408 14.2253ZM6.41888 6.38314H9.28703C11.609 6.38314 12.2006 7.20407 12.2006 9.16461C12.2006 11.1252 11.518 11.9916 9.15065 11.9916H6.41888V6.38386V6.38314ZM9.46886 23.6176H6.41888V17.4165H9.51432C12.0181 17.4165 12.6552 18.283 12.6552 20.5167C12.6552 22.6138 11.881 23.6169 9.46886 23.6169V23.6176ZM62.3506 6.4742H24.8161L25.6805 0.410461H63.215L62.3506 6.4742ZM23.1682 18.0319H60.7028L61.5672 11.9681H24.0327L23.1682 18.0319ZM59.0548 29.5902H21.5203L22.3847 23.5258H59.9192L59.0548 29.5902Z" fill="#CB3D00"/>
</svg>
