<svg width="139" height="161" viewBox="0 0 139 161" fill="none" xmlns="http://www.w3.org/2000/svg">
<path d="M3 160.5C1.61929 160.5 0.5 159.381 0.5 158V3C0.5 1.61929 1.61929 0.5 3 0.5H43.3333C44.714 0.5 45.8333 1.61929 45.8333 3V158C45.8333 159.381 44.714 160.5 43.3333 160.5H3ZM93.1667 3C93.1667 1.61929 94.286 0.5 95.6667 0.5H136C137.381 0.5 138.5 1.61929 138.5 3V158C138.5 159.381 137.381 160.5 136 160.5H95.6667C94.2859 160.5 93.1667 159.381 93.1667 158V3Z" fill="black" fill-opacity="0.8" stroke="black"/>
</svg>
