<svg width="30" height="26" viewBox="0 0 30 26" fill="none" xmlns="http://www.w3.org/2000/svg">
<path d="M30 3.45936C28.8963 3.96141 27.7099 4.30057 26.4651 4.45315C27.7357 3.67208 28.7118 2.43528 29.1712 0.961442C27.9819 1.68482 26.6647 2.20994 25.2627 2.49295C24.1401 1.2663 22.5405 0.5 20.7702 0.5C17.3712 0.5 14.6152 3.3257 14.6152 6.8111C14.6152 7.30576 14.6697 7.78751 14.7747 8.24941C9.65937 7.98624 5.12426 5.47354 2.08855 1.65513C1.55875 2.58724 1.25515 3.67132 1.25515 4.82799C1.25515 7.01767 2.34175 8.94941 3.99325 10.0812C2.98435 10.0484 2.0353 9.76447 1.2055 9.2918C1.2048 9.3181 1.2048 9.34455 1.2048 9.37117C1.2048 12.429 3.32641 14.9796 6.14206 15.5598C5.62561 15.7041 5.08186 15.7812 4.52056 15.7812C4.12396 15.7812 3.73846 15.7415 3.36256 15.668C4.14586 18.1753 6.41881 20 9.11222 20.0507C7.00576 21.7436 4.35196 22.7526 1.4682 22.7526C0.971401 22.7526 0.481501 22.7226 0 22.6643C2.72385 24.4552 5.95906 25.5 9.43487 25.5C20.7558 25.5 26.9468 15.8831 26.9468 7.54279C26.9468 7.26916 26.9408 6.99706 26.9289 6.7262C28.1313 5.83654 29.1747 4.72509 29.9999 3.45936H30Z" fill="white"/>
</svg>
