<svg width="34" height="28" viewBox="0 0 34 28" fill="none" xmlns="http://www.w3.org/2000/svg">
<path d="M33.5 3.5053C32.2859 4.05755 30.9809 4.43062 29.6116 4.59846C31.0093 3.73929 32.083 2.3788 32.5884 0.757586C31.2801 1.55331 29.8312 2.13093 28.289 2.44225C27.0541 1.09293 25.2945 0.25 23.3472 0.25C19.6083 0.25 16.5767 3.35827 16.5767 7.19221C16.5767 7.73634 16.6366 8.26626 16.7521 8.77435C11.1253 8.48486 6.13668 5.7209 2.79741 1.52065C2.21463 2.54597 1.88067 3.73845 1.88067 5.01079C1.88067 7.41944 3.07593 9.54435 4.89258 10.7893C3.78279 10.7532 2.73883 10.4409 1.82605 9.92098C1.82528 9.94991 1.82528 9.97901 1.82528 10.0083C1.82528 13.3719 4.15905 16.1776 7.25627 16.8158C6.68817 16.9745 6.09004 17.0593 5.47261 17.0593C5.03635 17.0593 4.61231 17.0156 4.19882 16.9348C5.06045 19.6928 7.56069 21.6999 10.5234 21.7558C8.20634 23.6179 5.28716 24.7278 2.11502 24.7278C1.56854 24.7278 1.02965 24.6949 0.5 24.6307C3.49624 26.6007 7.05497 27.75 10.8784 27.75C23.3314 27.75 30.1415 17.1715 30.1415 7.99707C30.1415 7.69607 30.1349 7.39676 30.1218 7.09882C31.4445 6.12019 32.5922 4.8976 33.4999 3.5053H33.5Z" fill="#CB3D00"/>
</svg>
