<svg width="70" height="70" viewBox="0 0 70 70" fill="none" xmlns="http://www.w3.org/2000/svg">
<circle cx="35" cy="35" r="34.5" fill="black" fill-opacity="0.6" stroke="black"/>
<g filter="url(#filter0_b_22_704)">
<path d="M42.4375 35C42.4375 32.0746 40.7517 29.5624 38.3056 28.3393V31.9919L42.3549 36.0413C42.4044 35.7107 42.4375 35.3636 42.4375 35ZM46.5694 35C46.5694 36.5536 46.2389 38.0081 45.6769 39.3633L48.1726 41.859C49.2635 39.8096 49.875 37.4792 49.875 35C49.875 27.9261 44.9332 22.0092 38.3056 20.5051V23.9099C43.0821 25.3313 46.5694 29.7607 46.5694 35ZM22.224 20.125L20.125 22.224L27.9426 30.0417H20.125V39.9583H26.7361L35 48.2222V37.099L42.0243 44.1233C40.9169 44.9828 39.6774 45.6604 38.3056 46.0736V49.4783C40.5864 48.966 42.6524 47.9082 44.4043 46.4868L47.776 49.875L49.875 47.776L35 32.901L22.224 20.125ZM35 21.7778L31.5457 25.2321L35 28.6864V21.7778Z" fill="#FF5C00"/>
</g>
<defs>
<filter id="filter0_b_22_704" x="16.125" y="16.125" width="37.75" height="37.75" filterUnits="userSpaceOnUse" color-interpolation-filters="sRGB">
<feFlood flood-opacity="0" result="BackgroundImageFix"/>
<feGaussianBlur in="BackgroundImageFix" stdDeviation="2"/>
<feComposite in2="SourceAlpha" operator="in" result="effect1_backgroundBlur_22_704"/>
<feBlend mode="normal" in="SourceGraphic" in2="effect1_backgroundBlur_22_704" result="shape"/>
</filter>
</defs>
</svg>
