<svg width="27" height="34" viewBox="0 0 27 34" fill="none" xmlns="http://www.w3.org/2000/svg">
<path d="M8.36 0L19.7544 3.65241C23.5779 4.87792 26.1465 8.39844 26.1465 12.4134V21.5866C26.1465 25.6016 23.5779 29.1228 19.7544 30.3476L8.36 34V0ZM10.5533 5.31205L17.1338 7.23096C19.6594 7.96733 21.4231 10.3189 21.4231 12.9493V20.9128C21.4231 23.5379 19.7386 25.8247 17.231 26.6025L10.554 28.6729V30.9935L19.0859 28.2591C21.9981 27.326 23.954 24.6444 23.954 21.5866V12.4134C23.954 9.35563 21.9974 6.67398 19.0859 5.74091L10.554 3.0065V5.31281L10.5533 5.31205ZM10.5533 9.87116L14.3067 10.8736C15.8842 11.2949 16.9853 12.7299 16.9853 14.3624V19.6421C16.9853 21.2768 15.8819 22.7119 14.3021 23.1317L10.5533 24.1288V26.3764L16.5813 24.5072C18.1656 24.0158 19.2298 22.5717 19.2298 20.9128V12.9493C19.2298 11.2874 18.1151 9.80107 16.5195 9.33604L10.5533 7.59575V9.87116ZM10.5533 21.8602L13.7384 21.0131C14.3587 20.848 14.792 20.285 14.792 19.6428V14.3632C14.792 13.7218 14.3594 13.1588 13.7399 12.993L10.5533 12.1413V21.8602Z" fill="#CB3D00"/>
<path d="M4.01494 29.7687L6.2082 31.9047V2.09603L4.01494 4.23201V29.7687Z" fill="#CB3D00"/>
<path d="M2.19326 6.00621L0 8.14294V25.8586L2.19326 27.9945V6.00621Z" fill="#CB3D00"/>
</svg>
