<svg width="185" height="55" viewBox="0 0 185 55" fill="none" xmlns="http://www.w3.org/2000/svg">
<path d="M44.1031 8.43935L44.942 0H10.4167L0 46.5606H36.0936L35.2948 55H69.8078L80.2245 8.43935H44.1031ZM13.7845 4.23208H40.2911L39.0297 16.9113H25.8358L26.2521 12.7242H22.0223L20.0823 32.2345H28.2414L28.6763 28.0025H24.7348L25.4163 21.1449H38.6103L36.5038 42.3286H5.26153L13.7845 4.23208ZM66.44 50.7679H39.9226L40.4993 44.6671L43.6806 12.673H74.963L72.1857 25.0854H57.9277L58.3441 20.8983H54.1142L52.1743 40.4087H60.3334L60.7682 36.1766H56.8252L57.5068 29.3191H71.2389L66.44 50.7679Z" fill="white"/>
<path fill-rule="evenodd" clip-rule="evenodd" d="M93.2804 13.2081V16.2476H94.807V19.8377C94.807 19.9959 94.753 20.1339 94.6451 20.2517C94.5372 20.3696 94.4045 20.4285 94.2488 20.4285H92.3999C92.2426 20.4285 92.1115 20.3696 92.0035 20.2517C91.8956 20.1323 91.8416 19.9959 91.8416 19.8377V8.70151C91.8416 8.54333 91.8956 8.40531 92.0035 8.28745C92.1115 8.16959 92.2426 8.11066 92.3999 8.11066H94.2488C94.4045 8.11066 94.5372 8.16959 94.6451 8.28745C94.753 8.40686 94.807 8.54488 94.807 8.70151V10.136H98.7115V8.33553C98.7115 5.73797 97.4979 4.43842 95.0707 4.43842H91.3713C88.9441 4.43842 87.7305 5.73797 87.7305 8.33553V20.2347C87.7305 22.8322 88.9441 24.1318 91.3713 24.1318H95.0707C97.4979 24.1318 98.7115 22.8322 98.7115 20.2347V13.2081H93.2804ZM110.984 20.2347V8.33554C110.984 5.73798 109.771 4.43842 107.343 4.43842H103.439C101.012 4.43842 99.798 5.73798 99.798 8.33554V20.2347C99.798 22.8322 101.012 24.1318 103.439 24.1318H107.343C109.771 24.1318 110.984 22.8322 110.984 20.2347ZM106.873 8.70152V19.8392C106.873 19.9959 106.819 20.1339 106.711 20.2517C106.603 20.3696 106.47 20.4285 106.315 20.4285H104.466C104.309 20.4285 104.177 20.3696 104.069 20.2517C103.962 20.1323 103.908 19.9959 103.908 19.8377V8.70152C103.908 8.54334 103.962 8.40532 104.069 8.28746C104.177 8.1696 104.309 8.11067 104.466 8.11067H106.315C106.47 8.11067 106.603 8.1696 106.711 8.28746C106.819 8.40687 106.873 8.54489 106.873 8.70152ZM123.329 8.33554V20.2347C123.329 22.8322 122.116 24.1318 119.688 24.1318H115.784C113.357 24.1318 112.143 22.8322 112.143 20.2347V8.33554C112.143 5.73798 113.357 4.43842 115.784 4.43842H119.688C122.116 4.43842 123.329 5.73798 123.329 8.33554ZM119.22 19.8392V8.70152C119.22 8.54489 119.166 8.40687 119.058 8.28746C118.95 8.1696 118.817 8.11067 118.661 8.11067H116.812C116.655 8.11067 116.524 8.1696 116.416 8.28746C116.308 8.40532 116.254 8.54334 116.254 8.70152V19.8377C116.254 19.9959 116.308 20.1323 116.416 20.2517C116.524 20.3696 116.655 20.4285 116.812 20.4285H118.661C118.817 20.4285 118.95 20.3696 119.058 20.2517C119.166 20.1339 119.22 19.9959 119.22 19.8392ZM135.675 8.63009C135.675 6.03253 134.461 4.73298 132.034 4.73298H124.489V23.8355H132.034C134.461 23.8355 135.675 22.5359 135.675 19.9384V8.63009ZM131.564 8.99763V19.5429C131.564 19.7011 131.51 19.8391 131.402 19.957C131.294 20.0749 131.161 20.1338 131.005 20.1338H128.598V8.40678H131.005C131.161 8.40678 131.294 8.46571 131.402 8.58357C131.51 8.70298 131.564 8.841 131.564 8.99763ZM142.757 16.2476V13.2081H148.189V20.2347C148.189 22.8322 146.975 24.1318 144.548 24.1318H140.848C138.421 24.1318 137.207 22.8322 137.207 20.2347V8.33553C137.207 5.73797 138.421 4.43842 140.848 4.43842H144.548C146.975 4.43842 148.189 5.73797 148.189 8.33553V10.136H144.284V8.70151C144.284 8.54488 144.23 8.40686 144.122 8.28745C144.014 8.16959 143.882 8.11066 143.726 8.11066H141.877C141.72 8.11066 141.588 8.16959 141.481 8.28745C141.373 8.40531 141.319 8.54333 141.319 8.70151V19.8377C141.319 19.9959 141.373 20.1323 141.481 20.2517C141.588 20.3696 141.72 20.4285 141.877 20.4285H143.726C143.882 20.4285 144.014 20.3696 144.122 20.2517C144.23 20.1339 144.284 19.9959 144.284 19.8377V16.2476H142.757ZM179.569 13.2081V16.2476H181.096V19.8377C181.096 19.9959 181.042 20.1339 180.934 20.2517C180.826 20.3696 180.693 20.4285 180.538 20.4285H178.689C178.531 20.4285 178.4 20.3696 178.292 20.2517C178.184 20.1323 178.13 19.9959 178.13 19.8377V8.70152C178.13 8.54334 178.184 8.40532 178.292 8.28746C178.4 8.1696 178.531 8.11067 178.689 8.11067H180.538C180.693 8.11067 180.826 8.1696 180.934 8.28746C181.042 8.40687 181.096 8.54489 181.096 8.70152V10.136H185V8.33554C185 5.73798 183.787 4.43842 181.36 4.43842H177.66C175.233 4.43842 174.019 5.73798 174.019 8.33554V20.2347C174.019 22.8322 175.233 24.1318 177.66 24.1318H181.36C183.787 24.1318 185 22.8322 185 20.2347V13.2081H179.569ZM156.821 4.43842C159.248 4.43842 160.462 5.73798 160.462 8.33554V23.8371H156.351V17.4293H153.385V23.8371H149.274V8.33554C149.274 5.73798 150.488 4.43842 152.915 4.43842H156.821ZM153.385 14.2409H156.351V8.70152C156.351 8.54489 156.297 8.40687 156.189 8.28746C156.081 8.1696 155.948 8.11067 155.793 8.11067H153.944C153.786 8.11067 153.655 8.1696 153.547 8.28746C153.439 8.40532 153.385 8.54334 153.385 8.70152V14.2409ZM168.602 23.8371H172.712V8.33554C172.712 5.73798 171.498 4.43842 169.071 4.43842H165.43C163.003 4.43842 161.789 5.73798 161.789 8.33554V23.8371H165.9V9.02408C165.9 8.8659 165.954 8.72788 166.062 8.61002C166.17 8.49217 166.301 8.43324 166.458 8.43324H168.044C168.199 8.43324 168.332 8.49217 168.44 8.61002C168.548 8.72943 168.602 8.86745 168.602 9.02408V23.8371ZM91.8416 45.7993H96.3337V49.6313H87.7305V30.5257H91.8416V45.7993ZM108.285 34.128C108.285 31.5304 107.071 30.2309 104.644 30.2309H100.738C98.3108 30.2309 97.0972 31.5304 97.0972 34.128V49.6296H101.208V43.2217H104.174V49.6296H108.285V34.128ZM104.174 40.0333H101.208V34.4939C101.208 34.3358 101.262 34.1977 101.37 34.0799C101.478 33.962 101.609 33.9031 101.767 33.9031H103.616C103.771 33.9031 103.904 33.962 104.012 34.0799C104.12 34.1993 104.174 34.3373 104.174 34.4939V40.0333ZM118.749 39.1775C120.021 39.6303 120.658 40.674 120.658 42.307V45.7326C120.658 48.3302 119.444 49.6297 117.017 49.6297H109.472V30.5257H116.783C119.21 30.5257 120.423 31.8252 120.423 34.4228V36.1643C120.423 37.7415 119.865 38.7448 118.749 39.1775ZM115.754 34.1995H113.581V38.4393H115.754C115.911 38.4393 116.042 38.3804 116.15 38.2625C116.258 38.1447 116.312 38.0066 116.312 37.8485V34.7903C116.312 34.6337 116.258 34.4957 116.15 34.3763C116.042 34.2584 115.911 34.1995 115.754 34.1995ZM116.547 45.3372V41.9239C116.547 41.7673 116.493 41.6293 116.385 41.5099C116.277 41.392 116.144 41.3331 115.988 41.3331H113.581V45.9265H115.988C116.144 45.9265 116.277 45.8676 116.385 45.7497C116.493 45.6318 116.547 45.4938 116.547 45.3372ZM128.247 35.5454H132.15V34.128C132.15 31.5304 130.936 30.2309 128.509 30.2309H125.251C122.823 30.2309 121.61 31.5304 121.61 34.128V37.9367C121.61 40.5342 122.823 41.8338 125.251 41.8338H127.894C128.05 41.8338 128.182 41.8927 128.29 42.0106C128.398 42.13 128.452 42.268 128.452 42.4246V45.8271C128.452 45.9852 128.398 46.1233 128.29 46.2411C128.182 46.359 128.051 46.4179 127.894 46.4179H126.074C125.917 46.4179 125.786 46.359 125.678 46.2411C125.57 46.1217 125.516 45.9852 125.516 45.8271V44.0483H121.611V46.0271C121.611 48.6247 122.825 49.9242 125.252 49.9242H128.717C131.144 49.9242 132.358 48.6247 132.358 46.0271V41.9237C132.358 39.3649 131.144 38.0654 128.717 38.0266H126.074C125.917 38.0266 125.786 37.9677 125.678 37.8498C125.57 37.7304 125.516 37.594 125.516 37.4358V34.3869C125.516 34.2288 125.57 34.0907 125.678 33.9729C125.786 33.855 125.917 33.7961 126.074 33.7961H127.689C127.844 33.7961 127.977 33.855 128.085 33.9729C128.193 34.0923 128.247 34.2303 128.247 34.3869V35.5454Z" fill="white"/>
</svg>
