<svg width="44" height="44" viewBox="0 0 44 44" fill="none" xmlns="http://www.w3.org/2000/svg">
<path d="M22.0025 13.5139C17.3155 13.5139 13.5264 17.3096 13.5264 21.99C13.5264 26.6769 17.3221 30.4661 22.0025 30.4661C26.6828 30.4661 30.4786 26.6637 30.4786 21.99C30.4786 17.303 26.6894 13.5139 22.0025 13.5139ZM22.0025 27.4889C18.9659 27.4889 16.5036 25.0266 16.5036 21.99C16.5036 18.9533 18.9659 16.4911 22.0025 16.4911C25.0391 16.4911 27.5014 18.9533 27.5014 21.99C27.5014 25.0266 25.0391 27.4889 22.0025 27.4889Z" fill="#CB3D00"/>
<path d="M30.811 15.1642C31.9047 15.1642 32.7913 14.2776 32.7913 13.1838C32.7913 12.0901 31.9047 11.2034 30.811 11.2034C29.7172 11.2034 28.8306 12.0901 28.8306 13.1838C28.8306 14.2776 29.7172 15.1642 30.811 15.1642Z" fill="#CB3D00"/>
<path d="M5.5 21.9901C5.5 26.4724 5.5198 27.0335 5.59902 28.7895C5.67824 30.5454 5.96209 31.7468 6.36477 32.7965C6.78726 33.8791 7.34837 34.8033 8.26595 35.7142C9.17694 36.6252 10.1011 37.1995 11.1837 37.6154C12.2333 38.0247 13.4348 38.302 15.1907 38.3812C16.9533 38.4604 17.5144 38.4802 21.9901 38.4802C26.4724 38.4802 27.0335 38.4604 28.7895 38.3812C30.5454 38.302 31.7468 38.0181 32.7965 37.6154C33.8791 37.1929 34.8033 36.6318 35.7142 35.7142C36.6252 34.8033 37.1995 33.8791 37.6154 32.7965C38.0247 31.7468 38.302 30.5454 38.3812 28.7895C38.4604 27.0269 38.4802 26.4658 38.4802 21.9901C38.4802 17.5078 38.4604 16.9467 38.3812 15.1907C38.302 13.4348 38.0181 12.2333 37.6154 11.1837C37.1929 10.1011 36.6318 9.17693 35.7142 8.26595C34.8099 7.34837 33.8857 6.78066 32.8031 6.36477C31.7535 5.95549 30.552 5.67824 28.7961 5.59902C27.0335 5.5198 26.4724 5.5 21.9967 5.5C17.5144 5.5 16.9533 5.5198 15.1973 5.59902C13.4414 5.67824 12.2399 5.96209 11.1903 6.36477C10.1077 6.78726 9.18354 7.34837 8.27255 8.26595C7.36157 9.18354 6.78726 10.1011 6.37137 11.1837C5.96209 12.2333 5.67824 13.4348 5.59902 15.1907C5.5198 16.9467 5.5 17.5078 5.5 21.9901ZM8.4772 21.9901C8.4772 17.587 8.497 17.0589 8.57622 15.3228C8.64883 13.712 8.91948 12.8341 9.14393 12.2598C9.44099 11.494 9.80406 10.9395 10.385 10.3586C10.9659 9.77766 11.5138 9.42778 12.2862 9.11752C12.8671 8.89308 13.745 8.62242 15.3492 8.54981C17.0853 8.47059 17.6068 8.45079 22.0165 8.45079C26.4262 8.45079 26.9477 8.47059 28.6838 8.54981C30.2946 8.62242 31.1725 8.89308 31.7468 9.11752C32.5126 9.41458 33.0671 9.77766 33.648 10.3586C34.2289 10.9395 34.5788 11.4874 34.8891 12.2598C35.1135 12.8407 35.3842 13.7186 35.4568 15.3228C35.536 17.0589 35.5558 17.5804 35.5558 21.9901C35.5558 26.3998 35.536 26.9213 35.4568 28.6574C35.3842 30.2681 35.1135 31.1461 34.8891 31.7204C34.592 32.4862 34.2289 33.0407 33.648 33.6216C33.0671 34.2025 32.5192 34.5524 31.7468 34.8627C31.1659 35.0871 30.288 35.3578 28.6838 35.4304C26.9477 35.5096 26.4262 35.5294 22.0165 35.5294C17.6068 35.5294 17.0853 35.5096 15.3492 35.4304C13.7384 35.3578 12.8605 35.0871 12.2862 34.8627C11.5204 34.5656 10.9659 34.2025 10.385 33.6216C9.80406 33.0407 9.45419 32.4928 9.14393 31.7204C8.91948 31.1395 8.64883 30.2615 8.57622 28.6574C8.4904 26.9213 8.4772 26.3932 8.4772 21.9901Z" fill="#CB3D00"/>
</svg>
